<?xml version="1.0" encoding="UTF-8" standalone="no"?><!-- Generator: Gravit.io --><svg xmlns="http://www.w3.org/2000/svg" xmlns:xlink="http://www.w3.org/1999/xlink" style="isolation:isolate" viewBox="0 0 800 600" width="800pt" height="600pt"><defs><clipPath id="_clipPath_lMLAaIEAsyzaj1kqWpYwooURh0NKPFi8"><rect width="800" height="600"/></clipPath></defs><g clip-path="url(#_clipPath_lMLAaIEAsyzaj1kqWpYwooURh0NKPFi8)"><g style="isolation:isolate"><path d=" M 435.781 334.26 L 435.781 334.26 L 331.348 260.469 L 8.26 334.26 L 8.26 334.26 L 112.693 408.051 L 435.781 334.26 Z " fill-rule="evenodd" fill="rgb(137,182,204)"/><path d=" M 37.543 375.255 L 37.543 375.255 L 320.798 307.321 L 412.355 375.255 L 412.355 375.255 L 129.1 443.19 L 37.543 375.255 Z " fill-rule="evenodd" fill="rgb(101,143,164)"/><path d=" M 30.515 408.051 L 8.26 334.26 L 112.693 408.051 L 112.693 479.5 L 30.515 408.051 Z " fill="rgb(85,123,142)"/><path d=" M 112.693 408.051 L 112.693 479.5 L 402.985 401.024 L 435.781 334.26 L 112.693 408.051 Z " fill="rgb(122,175,202)"/></g><g><path d=" M 273.537 270.085 C 284.137 262.516 293.031 252.248 299.061 239.686 C 318.146 199.925 301.361 152.149 261.601 133.064 C 221.84 113.978 174.064 130.763 154.979 170.523 C 148.949 183.085 146.499 196.447 147.224 209.452 L 146.998 287.029 L 146.749 372.327 L 213.148 318.783 L 273.537 270.085 Z " fill-rule="evenodd" fill="rgb(151,13,13)"/><path d=" M 276.368 273.81 L 216.094 322.43 L 142.033 382.142 L 142.314 287.01 L 142.537 209.577 C 142.455 208.054 142.42 206.531 142.42 205.02 C 142.42 192.37 145.278 179.896 150.759 168.499 C 157.752 153.905 168.797 141.63 182.572 133.138 C 195.959 124.881 211.373 120.5 227.104 120.5 C 239.754 120.512 252.228 123.358 263.625 128.84 C 278.219 135.832 290.494 146.877 298.986 160.652 C 307.243 174.04 311.624 189.465 311.624 205.196 C 311.612 217.834 308.766 230.32 303.285 241.717 C 297.159 254.507 287.894 265.552 276.368 273.81 Z  M 270.594 266.443 L 210.202 315.133 L 151.462 362.512 L 151.685 287.046 L 151.907 209.471 C 151.907 209.377 151.907 209.284 151.907 209.19 C 151.825 207.808 151.79 206.414 151.79 205.02 C 151.79 193.776 154.332 182.684 159.204 172.552 C 165.424 159.574 175.239 148.658 187.479 141.115 C 199.391 133.771 213.119 129.87 227.104 129.87 C 238.348 129.882 249.44 132.412 259.572 137.285 C 272.55 143.504 283.466 153.32 291.009 165.571 C 298.353 177.483 302.254 191.199 302.254 205.184 C 302.242 216.429 299.712 227.532 294.84 237.652 C 289.37 249.072 281.1 258.911 270.816 266.279 C 270.734 266.325 270.664 266.384 270.594 266.443 Z " fill-rule="evenodd" fill="rgb(38,5,5)"/><mask id="_mask_pEB1W5ZdS6L1YzOJqg8XOPcbTdCf4b5N"><path d=" M 200.826 192.531 C 207.765 178.074 225.136 171.971 239.593 178.911 C 254.05 185.85 260.153 203.221 253.214 217.678 C 246.274 232.135 228.903 238.238 214.446 231.299 C 199.989 224.359 193.886 206.988 200.826 192.531 Z " fill="white" stroke="none"/></mask><path d=" M 200.826 192.531 C 207.765 178.074 225.136 171.971 239.593 178.911 C 254.05 185.85 260.153 203.221 253.214 217.678 C 246.274 232.135 228.903 238.238 214.446 231.299 C 199.989 224.359 193.886 206.988 200.826 192.531 Z " fill="rgb(38,5,5)"/><path d=" M 200.826 192.531 C 207.765 178.074 225.136 171.971 239.593 178.911 C 254.05 185.85 260.153 203.221 253.214 217.678 C 246.274 232.135 228.903 238.238 214.446 231.299 C 199.989 224.359 193.886 206.988 200.826 192.531 Z " fill="rgb(38,5,5)" mask="url(#_mask_pEB1W5ZdS6L1YzOJqg8XOPcbTdCf4b5N)" vector-effect="non-scaling-stroke" stroke-width="2" stroke="rgb(0,0,0)" stroke-linejoin="miter" stroke-linecap="square" stroke-miterlimit="3"/></g><path d=" M 292.083 352.111 L 226.831 352.111 L 226.831 334.822 L 232.101 334.822 L 232.101 287.385 L 226.831 287.385 L 226.831 270.097 L 271.316 270.097 L 271.316 287.385 L 261.618 287.385 L 261.618 334.822 L 271.105 334.822 L 271.105 325.124 L 292.083 325.124 L 292.083 352.111 Z  M 361.084 270.097 L 378.899 334.822 L 383.116 334.822 L 383.116 352.111 L 341.793 352.111 L 341.793 334.822 L 348.118 334.822 L 346.431 326.389 L 332.094 326.389 L 330.408 334.822 L 336.733 334.822 L 336.733 352.111 L 300.68 352.111 L 300.68 334.822 L 304.897 334.822 L 322.712 270.097 L 361.084 270.097 Z  M 338.735 294.237 L 334.413 315.215 L 344.112 315.215 L 339.79 294.237 L 338.735 294.237 Z  M 430.084 353.586 L 430.084 353.586 Q 410.161 353.586 399.356 343.467 L 399.356 343.467 L 399.356 343.467 Q 388.55 333.347 388.55 311.104 L 388.55 311.104 L 388.55 311.104 Q 388.55 268.621 429.873 268.621 L 429.873 268.621 L 429.873 268.621 Q 439.888 268.621 448.479 271.046 L 448.479 271.046 L 448.479 271.046 Q 457.071 273.47 461.287 276.422 L 461.287 276.422 L 461.287 302.776 L 435.988 302.776 L 435.988 295.186 L 435.988 295.186 Q 435.988 291.18 434.196 289.283 L 434.196 289.283 L 434.196 289.283 Q 432.403 287.385 428.819 287.385 L 428.819 287.385 L 428.819 287.385 Q 425.235 287.385 423.443 289.283 L 423.443 289.283 L 423.443 289.283 Q 421.651 291.18 421.651 295.186 L 421.651 295.186 L 421.651 327.022 L 421.651 327.022 Q 421.651 331.027 423.443 332.925 L 423.443 332.925 L 423.443 332.925 Q 425.235 334.822 428.819 334.822 L 428.819 334.822 L 428.819 334.822 Q 432.403 334.822 434.196 332.925 L 434.196 332.925 L 434.196 332.925 Q 435.988 331.027 435.988 327.022 L 435.988 327.022 L 435.988 318.483 L 461.287 318.483 L 461.287 345.786 L 461.287 345.786 Q 456.965 348.737 448.479 351.162 L 448.479 351.162 L 448.479 351.162 Q 439.993 353.586 430.084 353.586 L 430.084 353.586 Z  M 542.305 352.111 L 471.15 352.111 L 471.15 334.822 L 476.42 334.822 L 476.42 287.385 L 471.15 287.385 L 471.15 270.097 L 542.305 270.097 L 542.305 301.933 L 518.692 301.933 L 518.692 287.385 L 505.937 287.385 L 505.937 304.041 L 515.214 304.041 L 515.214 316.058 L 505.937 316.058 L 505.937 334.822 L 518.692 334.822 L 518.692 318.167 L 542.305 318.167 L 542.305 352.111 Z  M 552.168 352.111 L 552.168 334.822 L 557.439 334.822 L 557.439 287.385 L 552.168 287.385 L 552.168 270.097 L 600.554 270.097 L 600.554 270.097 Q 613.731 270.097 621.11 275.473 L 621.11 275.473 L 621.11 275.473 Q 628.489 280.849 628.489 290.864 L 628.489 290.864 L 628.489 290.864 Q 628.489 297.083 625.537 301.353 L 625.537 301.353 L 625.537 301.353 Q 622.586 305.622 618.633 307.783 L 618.633 307.783 L 618.633 307.783 Q 614.679 309.944 610.99 310.682 L 610.99 310.682 L 610.99 311.736 L 610.99 311.736 Q 618.474 312.474 624.483 316.48 L 624.483 316.48 L 624.483 316.48 Q 630.492 320.486 630.492 330.817 L 630.492 330.817 L 630.492 330.817 Q 630.492 341.885 622.164 346.998 L 622.164 346.998 L 622.164 346.998 Q 613.836 352.111 600.554 352.111 L 600.554 352.111 L 552.168 352.111 Z  M 586.955 304.673 L 592.647 304.673 L 592.647 304.673 Q 595.705 304.673 597.233 303.039 L 597.233 303.039 L 597.233 303.039 Q 598.762 301.406 598.762 297.927 L 598.762 297.927 L 598.762 294.132 L 598.762 294.132 Q 598.762 290.653 597.233 289.019 L 597.233 289.019 L 597.233 289.019 Q 595.705 287.385 592.647 287.385 L 592.647 287.385 L 586.955 287.385 L 586.955 304.673 Z  M 586.955 334.822 L 593.385 334.822 L 593.385 334.822 Q 596.442 334.822 597.971 333.188 L 597.971 333.188 L 597.971 333.188 Q 599.5 331.555 599.5 328.076 L 599.5 328.076 L 599.5 323.437 L 599.5 323.437 Q 599.5 319.959 597.971 318.325 L 597.971 318.325 L 597.971 318.325 Q 596.442 316.691 593.385 316.691 L 593.385 316.691 L 586.955 316.691 L 586.955 334.822 Z  M 679.78 352.111 L 639.722 352.111 L 639.722 334.822 L 644.992 334.822 L 644.992 287.385 L 639.722 287.385 L 639.722 270.097 L 679.78 270.097 L 679.78 287.385 L 674.509 287.385 L 674.509 334.822 L 679.78 334.822 L 679.78 352.111 Z  M 750.572 287.385 L 750.572 270.097 L 785.149 270.097 L 785.149 287.385 L 779.878 287.385 L 779.878 352.111 L 750.256 352.111 L 719.369 304.568 L 719.369 334.822 L 724.429 334.822 L 724.429 352.111 L 689.853 352.111 L 689.853 334.822 L 695.124 334.822 L 695.124 287.385 L 689.853 287.385 L 689.853 270.097 L 727.908 270.097 L 755.632 312.369 L 755.632 287.385 L 750.572 287.385 Z " fill="rgb(38,5,5)"/></g></svg>