<svg id="Layer_1" data-name="Layer 1" xmlns="http://www.w3.org/2000/svg" viewBox="0 0 549.86 544.37"><defs><style>.cls-1{fill:#d18f4b;}.cls-2{fill:#653614;}.cls-3{fill:#aa4724;}.cls-4{fill:#80361a;}.cls-5{fill:#80461d;}.cls-6{fill:#d25727;}.cls-7{fill:#996632;}.cls-8{fill:#ffde17;}.cls-9{fill:#a7a9ac;}.cls-10{fill:#1b75bc;}.cls-11{fill:#ed1c24;stroke:#790410;stroke-miterlimit:10;stroke-width:4px;}.cls-12{fill:#880102;}.cls-13{fill:none;}.cls-14{fill:#da1c5c;}.cls-15{fill:#93023b;}.cls-16{fill:#939598;}.cls-17{fill:#2b3990;}.cls-18{fill:#009444;}.cls-19{fill:#006838;}.cls-20{fill:#bcbec0;}.cls-21{fill:#f89958;}.cls-22{fill:#f26722;}.cls-23{fill:#2f1110;}.cls-24{fill:#999;}.cls-25{fill:#ceaa8a;}.cls-26{fill:#ffd8aa;}.cls-27{font-size:60px;fill:#231f20;font-family:MVBoli, MV Boli;}</style></defs><title>Logo 1.1</title><path class="cls-1" d="M64.41,352.72H45.14c-.48,0-.93-.22-.88-.5L78.5,169.82v-3.36a.25.25,0,0,1,.09-.2c-.14-.07-.21-.11,0-.11h419a.31.31,0,0,1,.32.31v4.48l34,181.28c.05.28-.39.5-.88.5H509.94c.07.08.18.13-.22.13h47.83l-35.4-202.09c-.06-.33.56-.6,0-.6H54c-.54,0,.07.27,0,.6L18.61,352.85H44.87C44.47,352.85,59,352.8,64.41,352.72Z" transform="translate(-15 -12.31)"/><path class="cls-2" d="M45.14,352.72H64.41c1.22,0,2,0,2-.06L78.81,284c0-.11-1-.19-.51-.19l403.93.55c-2-.13,14.54-.44,14.55-.36l.07.38h0l13.06,68.29a.09.09,0,0,0,0,.06H531c.49,0,.93-.22.88-.5l-34-181.28V283.11a.31.31,0,0,1-.32.31H78.81a.31.31,0,0,1-.31-.31V169.82L44.26,352.22C44.21,352.5,44.66,352.72,45.14,352.72Z" transform="translate(-15 -12.31)"/><path class="cls-3" d="M78.81,166.15h-.23c-.2,0-.13,0,0,.11A.27.27,0,0,1,78.81,166.15Z" transform="translate(-15 -12.31)"/><path class="cls-4" d="M44.87,352.85H509.72c.4,0,.29-.05.22-.13H64.41C59,352.8,44.47,352.85,44.87,352.85Z" transform="translate(-15 -12.31)"/><path class="cls-4" d="M497.29,284.37h0Z" transform="translate(-15 -12.31)"/><path class="cls-5" d="M496.85,284.37c-9.78.05-13.81,0-14.62,0L78.3,283.8c-.48,0,.53.08.51.19L66.39,352.66s-.76,0-2,.06H509.94a.09.09,0,0,1,0-.06Z" transform="translate(-15 -12.31)"/><path class="cls-4" d="M496.78,284c0-.08-16.5.23-14.55.36l14.62,0Z" transform="translate(-15 -12.31)"/><path class="cls-4" d="M496.85,284.37h0l-14.62,0C483,284.4,487.07,284.42,496.85,284.37Z" transform="translate(-15 -12.31)"/><path class="cls-6" d="M78.59,166.26a.25.25,0,0,0-.09.2v3.36l.59-3.17C79.12,166.49,78.78,166.35,78.59,166.26Z" transform="translate(-15 -12.31)"/><path class="cls-7" d="M497.06,166.65l.19,1h0l.62,3.26v-4.48a.31.31,0,0,0-.32-.31H78.81l403.67,1.47C480.68,167.28,497,166.46,497.06,166.65Z" transform="translate(-15 -12.31)"/><path class="cls-6" d="M497.25,167.67h0Z" transform="translate(-15 -12.31)"/><path class="cls-7" d="M78.81,283.42H497.55a.31.31,0,0,0,.32-.31V170.94l-.62-3.26c-10,.14-14,.08-14.77-.06L78.81,166.15a.27.27,0,0,0-.22.11c.19.09.53.23.5.39l-.59,3.17V283.11A.31.31,0,0,0,78.81,283.42Z" transform="translate(-15 -12.31)"/><path class="cls-7" d="M497.06,166.65c0-.19-16.38.63-14.58,1l14.77,0Z" transform="translate(-15 -12.31)"/><path class="cls-7" d="M482.48,167.62c.76.14,4.81.2,14.77.06h0Z" transform="translate(-15 -12.31)"/><path d="M246.21,273.63h-.65a66.68,66.68,0,0,0-87.43-87.77l5.76,13.43a52,52,0,1,1-27.34,68.35l-13.43,5.75.11.24h-.65a6.54,6.54,0,0,0-6.53,6.53V315a6.55,6.55,0,0,0,6.53,6.53H246.21a6.55,6.55,0,0,0,6.53-6.53v-34.8A6.54,6.54,0,0,0,246.21,273.63Z" transform="translate(-15 -12.31)"/><path class="cls-8" d="M184.39,299.18a52,52,0,1,0-20.5-99.89l-5.76-13.43,0-.09A66.74,66.74,0,0,0,139.17,198l-20.72,38.79A66.71,66.71,0,0,0,123,273.43l.09,0,13.43-5.75A52,52,0,0,0,184.39,299.18Zm0-92.65a40.61,40.61,0,1,1-40.6,40.6A40.61,40.61,0,0,1,184.39,206.53Z" transform="translate(-15 -12.31)"/><circle cx="184.39" cy="247.13" r="40.6" transform="translate(-135.74 190.46) rotate(-45)"/><polygon points="124.17 185.72 124.18 185.7 98.62 197.08 103.44 224.52 103.45 224.51 124.17 185.72"/><rect class="cls-9" x="95.89" y="277.15" width="5.15" height="32.03"/><path d="M214.41,318.11h-.65a66.67,66.67,0,0,0-87.43-87.76l5.76,13.42a52,52,0,1,1-27.34,68.36l-13.43,5.75.11.23h-.65a6.55,6.55,0,0,0-6.53,6.53v34.8A6.55,6.55,0,0,0,90.78,366H214.41a6.55,6.55,0,0,0,6.53-6.53v-34.8A6.55,6.55,0,0,0,214.41,318.11Z" transform="translate(-15 -12.31)"/><path class="cls-10" d="M152.59,343.66a52,52,0,1,0-20.5-99.89l-5.76-13.42,0-.09a66.74,66.74,0,0,0-18.92,12.26L86.65,281.31a66.73,66.73,0,0,0,4.58,36.61l.09,0,13.43-5.75A52.05,52.05,0,0,0,152.59,343.66Zm0-92.64a40.6,40.6,0,1,1-40.6,40.6A40.6,40.6,0,0,1,152.59,251Z" transform="translate(-15 -12.31)"/><circle cx="152.59" cy="291.62" r="40.6" transform="translate(-176.51 181) rotate(-45)"/><polygon points="92.37 230.21 92.38 230.19 66.81 241.56 71.64 269 71.65 269 92.37 230.21"/><rect class="cls-9" x="64.09" y="321.63" width="5.15" height="32.03"/><path d="M251.79,362.67h-.65a66.68,66.68,0,0,0-87.43-87.77l5.75,13.43a52,52,0,1,1-27.34,68.35l-13.42,5.75.1.24h-.65a6.53,6.53,0,0,0-6.52,6.52V404a6.53,6.53,0,0,0,6.52,6.52H251.79a6.53,6.53,0,0,0,6.52-6.52V369.19A6.53,6.53,0,0,0,251.79,362.67Z" transform="translate(-15 -12.31)"/><path class="cls-8" d="M190,388.22a52,52,0,1,0-20.51-99.89l-5.75-13.43,0-.09a66.47,66.47,0,0,0-18.92,12.26L124,325.86a66.72,66.72,0,0,0,4.59,36.61l.09,0,13.42-5.75A52.08,52.08,0,0,0,190,388.22Zm0-92.65a40.6,40.6,0,1,1-40.6,40.6A40.6,40.6,0,0,1,190,295.57Z" transform="translate(-15 -12.31)"/><circle cx="189.97" cy="336.17" r="40.6" transform="translate(-197.07 220.48) rotate(-45)"/><polygon points="129.75 274.76 129.76 274.74 104.19 286.11 109.02 313.56 109.02 313.55 129.75 274.76"/><rect class="cls-9" x="101.47" y="366.19" width="5.15" height="32.03"/><path class="cls-11" d="M436.3,122.23a107.92,107.92,0,1,0-193.22,66.1,535.21,535.21,0,0,1,43.51,70.56,536.12,536.12,0,0,1,28.31,65.46,14,14,0,0,0,27,0,534.91,534.91,0,0,1,71.81-136A107.48,107.48,0,0,0,436.3,122.23Z" transform="translate(-15 -12.31)"/><circle class="cls-12" cx="313.39" cy="109.92" r="40.21"/><path class="cls-13" d="M509.94,352.72H531c.49,0,.93-.22.88-.5l-34-181.28v-4.48a.31.31,0,0,0-.32-.31h-419c-.2,0-.13,0,0,.11a.25.25,0,0,0-.09.2v3.36L44.26,352.22c0,.28.4.5.88.5H64.41c-5.39.08-19.94.13-19.54.13H509.72C510.12,352.85,510,352.8,509.94,352.72Z" transform="translate(-15 -12.31)"/><rect class="cls-14" x="400.59" y="236.39" width="26.73" height="81.38" rx="12" transform="translate(393.95 762.86) rotate(-123.22)"/><rect class="cls-15" x="407" y="234.42" width="7.08" height="74.91" rx="3.54" transform="translate(393.02 751.97) rotate(-123.22)"/><rect class="cls-15" x="413.76" y="244.92" width="7.32" height="74.91" rx="3.66" transform="translate(394.88 773.97) rotate(-123.22)"/><rect class="cls-16" x="484.52" y="182.25" width="5.35" height="93.72" transform="translate(547.44 749.89) rotate(-123.22)"/><polyline class="cls-16" points="512.86 193.36 524.62 183.61 523.45 181.82 509.21 189.36"/><rect class="cls-10" x="446.73" y="236.37" width="26.73" height="81.38" rx="12" transform="translate(614.95 774.26) rotate(-139.49)"/><rect class="cls-17" x="451.83" y="235.57" width="7.08" height="74.91" rx="3.54" transform="matrix(-0.76, -0.65, 0.65, -0.76, 609.25, 764.08)"/><rect class="cls-17" x="461.25" y="243.72" width="7.32" height="74.91" rx="3.66" transform="translate(620.75 784.63) rotate(-139.49)"/><rect class="cls-9" x="514.29" y="163.63" width="5.35" height="93.72" transform="matrix(-0.76, -0.65, 0.65, -0.76, 758.3, 694.02)"/><polyline class="cls-9" points="534.43 164.29 542.99 151.63 541.37 150.25 529.81 161.47"/><rect class="cls-18" x="377.16" y="278.22" width="36.87" height="112.26" rx="12" transform="translate(464.2 833.21) rotate(-139.49)"/><rect class="cls-19" x="384.19" y="277.11" width="9.77" height="103.34" rx="4.89" transform="translate(456.34 819.17) rotate(-139.49)"/><rect class="cls-19" x="397.19" y="288.35" width="10.1" height="103.34" rx="5.05" transform="translate(472.21 847.51) rotate(-139.49)"/><rect class="cls-20" x="470.36" y="177.87" width="7.37" height="129.3" transform="translate(661.95 722.51) rotate(-139.49)"/><polyline class="cls-20" points="503.84 183.45 515.65 165.99 513.41 164.08 497.47 179.56"/><rect class="cls-18" x="438.07" y="295.11" width="36.87" height="112.26" rx="12" transform="translate(649.07 876.23) rotate(-148.7)"/><rect class="cls-19" x="444.3" y="295.12" width="9.77" height="103.34" rx="4.89" transform="translate(637.8 864.17) rotate(-148.7)"/><rect class="cls-19" x="458.92" y="304.11" width="10.1" height="103.34" rx="5.05" transform="translate(660.55 888.53) rotate(-148.7)"/><rect class="cls-9" x="515.57" y="183.4" width="7.37" height="129.3" transform="translate(819.06 717.46) rotate(-148.7)"/><polyline class="cls-9" points="541 182.41 549.86 163.29 547.34 161.76 534.09 179.59"/><path class="cls-21" d="M561.16,373.45v0A0,0,0,0,1,561.16,373.45Z" transform="translate(-15 -12.31)"/><path class="cls-22" d="M561.15,372.51a.47.47,0,0,0-.23-.41l.23,1.32Z" transform="translate(-15 -12.31)"/><path class="cls-2" d="M560.17,374H16c-.54,0-1-.27-1-.59l.24-1.36a.5.5,0,0,0-.24.42V556.19a.49.49,0,0,0,.49.49H560.66a.49.49,0,0,0,.49-.49V373.47C561.19,373.78,560.7,374,560.17,374Z" transform="translate(-15 -12.31)"/><rect class="cls-23" x="164.23" y="484.17" width="217.55" height="31.74"/><circle class="cls-23" cx="164.23" cy="500.04" r="15.87"/><circle class="cls-23" cx="381.77" cy="500.04" r="15.87"/><rect class="cls-24" x="164.41" y="465.3" width="217.55" height="31.74"/><circle class="cls-24" cx="164.41" cy="481.17" r="15.87"/><circle class="cls-24" cx="174.41" cy="453.89" r="11.41"/><circle class="cls-24" cx="381.96" cy="481.17" r="15.87"/><polyline class="cls-24" points="164.41 448.4 149.73 475.14 179.09 475.14 185.82 453.89"/><circle class="cls-24" cx="372.05" cy="454.12" r="11.41"/><polyline class="cls-24" points="382.05 448.63 396.73 475.37 367.37 475.37 360.64 454.12"/><polyline class="cls-25" points="473.65 369.36 487.92 369.36 473.95 380.08 487.92 383.48 474.33 393.73 487.92 398 474.66 405.7 487.92 418.5 475.31 429.13"/><rect class="cls-25" x="102.59" y="387.02" width="386.97" height="59.8" transform="translate(-26.44 -3.95) rotate(-1.59)"/><polyline class="cls-25" points="86.83 380.08 70.19 380.08 86.83 392.88 74.47 398.85 86.83 406.54 70.19 417.65 86.83 422.47 78.51 439 88.49 439.86"/><polyline class="cls-26" points="473.7 365.1 487.96 365.1 473.99 375.82 487.96 379.22 474.37 389.47 487.96 393.74 474.7 401.44 487.96 414.24 475.35 424.87"/><rect class="cls-26" x="102.63" y="382.76" width="386.97" height="59.8" transform="translate(-26.32 -3.95) rotate(-1.59)"/><polyline class="cls-26" points="86.88 375.82 70.24 375.82 86.88 388.62 74.51 394.6 86.88 402.28 70.24 413.39 86.88 418.21 78.56 434.74 88.53 435.6"/><text class="cls-27" transform="translate(105.72 428.09) rotate(-1.59)">PLACEWISE</text><path class="cls-2" d="M16,374H560.17c.53,0,1-.26,1-.57v-.05l-.23-1.32a.48.48,0,0,0-.26-.09H15.49a.57.57,0,0,0-.25.08L15,373.45C15,373.77,15.45,374,16,374Z" transform="translate(-15 -12.31)"/><path class="cls-1" d="M509.72,352.85H18.61l-3.37,19.24a.57.57,0,0,1,.25-.08H560.66a.48.48,0,0,1,.26.09l-3.37-19.25Z" transform="translate(-15 -12.31)"/></svg>